<?xml version="1.0" encoding="UTF-8"?>
<svg xmlns="http://www.w3.org/2000/svg" width="1840" height="1052" viewBox="0 0 1840 1052" font-family="-apple-system, Helvetica, Arial, sans-serif">
<rect x="0" y="0" width="1840" height="1052" fill="#ffffff"/>
<text x="40" y="46" font-size="26" font-weight="700" fill="#1a1a1a">GrowBot V0 Wiring</text>
<rect x="40" y="104" width="116" height="50" rx="3" fill="#eef1f4" stroke="#9aa6b2" stroke-width="1.5"/>
<text x="98.0" y="126" text-anchor="middle" font-size="13" font-weight="700" fill="#222">USB-C</text>
<text x="98.0" y="143" text-anchor="middle" font-size="10.5" fill="#555">5 V in</text>
<rect x="312" y="104" width="132" height="50" rx="3" fill="#d4edda" stroke="#3c9a52" stroke-width="1.5"/>
<text x="378.0" y="126" text-anchor="middle" font-size="13" font-weight="700" fill="#222">TP4056</text>
<text x="378.0" y="143" text-anchor="middle" font-size="10.5" fill="#555">charge + protect</text>
<rect x="312" y="178" width="132" height="44" rx="3" fill="#fff3cd" stroke="#b8902a" stroke-width="1.5"/>
<text x="378.0" y="200" text-anchor="middle" font-size="13" font-weight="700" fill="#222">1S LiPo 3.7 V</text>
<rect x="600" y="104" width="96" height="50" rx="3" fill="#f8d7da" stroke="#b3404a" stroke-width="1.5"/>
<text x="648.0" y="126" text-anchor="middle" font-size="13" font-weight="700" fill="#222">SWITCH</text>
<text x="648.0" y="143" text-anchor="middle" font-size="10.5" fill="#555">SPST</text>
<rect x="852" y="104" width="132" height="50" rx="3" fill="#d1ecf1" stroke="#0c8599" stroke-width="1.5"/>
<text x="918.0" y="126" text-anchor="middle" font-size="13" font-weight="700" fill="#222">MT3608</text>
<text x="918.0" y="143" text-anchor="middle" font-size="10.5" fill="#555">boost to 5.1 V</text>
<line x1="156" y1="129" x2="312" y2="129" stroke="#d9534f" stroke-width="3"/>
<line x1="444" y1="129" x2="600" y2="129" stroke="#d9534f" stroke-width="3"/>
<line x1="696" y1="129" x2="852" y2="129" stroke="#d9534f" stroke-width="3"/>
<line x1="378" y1="154" x2="378" y2="178" stroke="#d9534f" stroke-width="3"/>
<text x="280" y="122" font-size="8" fill="#777">IN+</text>
<text x="384" y="172" font-size="8" fill="#777">BAT+</text>
<text x="448" y="122" font-size="8" fill="#777">OUT+</text>
<text x="318" y="194" font-size="8" fill="#8a6d1a">B+</text>
<text x="318" y="216" font-size="8" fill="#8a6d1a">B-</text>
<path d="M984 122 V 322" fill="none" stroke="#d9534f" stroke-width="3"/>
<circle cx="984" cy="322" r="4.5" fill="#d9534f"/>
<path d="M984 144 H 1123 V 832" fill="none" stroke="#5a5a5a" stroke-width="3"/>
<circle cx="1123" cy="832" r="4.5" fill="#5a5a5a"/>
<rect x="1286" y="104" width="516" height="174" rx="3" fill="#ffffff" stroke="#cfcfc9"/>
<text x="1302" y="130" font-size="14" font-weight="700" fill="#222">Legend</text>
<text x="1302" y="152" font-size="11" font-weight="600" fill="#1a1a1a">Shared: BCLK and LRC each go to both the amp and the mic.</text>
<rect x="1302" y="169" width="14" height="14" rx="2" fill="#d9534f"/>
<text x="1324" y="180" font-size="11" fill="#444">5V</text>
<rect x="1302" y="193" width="14" height="14" rx="2" fill="#ef9a3d"/>
<text x="1324" y="204" font-size="11" fill="#444">3V3</text>
<rect x="1302" y="217" width="14" height="14" rx="2" fill="#5a5a5a"/>
<text x="1324" y="228" font-size="11" fill="#444">GND</text>
<rect x="1302" y="241" width="14" height="14" rx="2" fill="#138496"/>
<text x="1324" y="252" font-size="11" fill="#444">I2C SDA</text>
<rect x="1471" y="169" width="14" height="14" rx="2" fill="#17a2b8"/>
<text x="1493" y="180" font-size="11" fill="#444">I2C SCL</text>
<rect x="1471" y="193" width="14" height="14" rx="2" fill="#e8901a"/>
<text x="1493" y="204" font-size="11" fill="#444">SERVO DATA</text>
<rect x="1471" y="217" width="14" height="14" rx="2" fill="#8e44ad"/>
<text x="1493" y="228" font-size="11" fill="#444">I2S BCLK</text>
<rect x="1471" y="241" width="14" height="14" rx="2" fill="#9b59b6"/>
<text x="1493" y="252" font-size="11" fill="#444">I2S LRC</text>
<rect x="1636" y="169" width="14" height="14" rx="2" fill="#7d5ba6"/>
<text x="1658" y="180" font-size="11" fill="#444">I2S DIN</text>
<rect x="1636" y="193" width="14" height="14" rx="2" fill="#6c3483"/>
<text x="1658" y="204" font-size="11" fill="#444">I2S DOUT</text>
<rect x="1636" y="217" width="14" height="14" rx="2" fill="#5cb85c"/>
<text x="1658" y="228" font-size="11" fill="#444">LED DIN</text>
<line x1="40" y1="322" x2="1810" y2="322" stroke="#d9534f" stroke-width="5"/>
<text x="1806" y="313" text-anchor="end" font-size="13" font-weight="700" fill="#d9534f">5 V RAIL</text>
<line x1="40" y1="832" x2="1810" y2="832" stroke="#5a5a5a" stroke-width="5"/>
<text x="1806" y="854" text-anchor="end" font-size="13" font-weight="700" fill="#5a5a5a">GND RAIL</text>
<line x1="1620" y1="322" x2="1620" y2="832" stroke="#bbb" stroke-width="2" stroke-dasharray="3,3"/>
<line x1="1604" y1="571" x2="1636" y2="571" stroke="#333" stroke-width="3"/>
<line x1="1604" y1="583" x2="1636" y2="583" stroke="#333" stroke-width="3"/>
<text x="1611" y="344" font-size="13" font-weight="700" fill="#d9534f">+</text>
<text x="1612" y="824" font-size="14" font-weight="700" fill="#333">−</text>
<text x="1644" y="575" font-size="11" font-weight="700" fill="#333">470-1000 µF</text>
<text x="1644" y="590" font-size="10" fill="#777">across 5 V / GND</text>
<rect x="60" y="372" width="318" height="422" rx="3" fill="#ffffff" stroke="#2d6a2f" stroke-width="1.75"/>
<rect x="60" y="372" width="318" height="30" rx="3" fill="#2d6a2f"/>
<rect x="60" y="388" width="318" height="14" fill="#2d6a2f"/>
<text x="72" y="393" font-size="13" font-weight="700" fill="#fff">Raspberry Pi Zero 2 W</text>
<circle cx="60" cy="427.0" r="5" fill="#d9534f" stroke="#fff" stroke-width="1"/>
<text x="74" y="431.0" font-size="11.5" fill="#333">Pin2/4  5V</text>
<rect x="344.0" y="417.0" width="22.0" height="20" rx="3" fill="#d9534f"/>
<text x="355.0" y="431.0" text-anchor="middle" font-size="10.5" font-weight="600" fill="#fff">5V</text>
<circle cx="60" cy="457.0" r="5" fill="#ef9a3d" stroke="#fff" stroke-width="1"/>
<text x="74" y="461.0" font-size="11.5" fill="#333">Pin1/17  3V3</text>
<rect x="337.0" y="447.0" width="29.0" height="20" rx="3" fill="#ef9a3d"/>
<text x="351.5" y="461.0" text-anchor="middle" font-size="10.5" font-weight="600" fill="#fff">3V3</text>
<circle cx="60" cy="487.0" r="5" fill="#138496" stroke="#fff" stroke-width="1"/>
<text x="74" y="491.0" font-size="11.5" fill="#333">Pin3  GPIO2</text>
<rect x="309.0" y="477.0" width="57.0" height="20" rx="3" fill="#138496"/>
<text x="337.5" y="491.0" text-anchor="middle" font-size="10.5" font-weight="600" fill="#fff">I2C SDA</text>
<circle cx="60" cy="517.0" r="5" fill="#17a2b8" stroke="#fff" stroke-width="1"/>
<text x="74" y="521.0" font-size="11.5" fill="#333">Pin5  GPIO3</text>
<rect x="309.0" y="507.0" width="57.0" height="20" rx="3" fill="#17a2b8"/>
<text x="337.5" y="521.0" text-anchor="middle" font-size="10.5" font-weight="600" fill="#fff">I2C SCL</text>
<circle cx="60" cy="547.0" r="5" fill="#e8901a" stroke="#fff" stroke-width="1"/>
<text x="74" y="551.0" font-size="11.5" fill="#333">Pin8  GPIO14 TX</text>
<rect x="288.0" y="537.0" width="78.0" height="20" rx="3" fill="#e8901a"/>
<text x="327.0" y="551.0" text-anchor="middle" font-size="10.5" font-weight="600" fill="#fff">SERVO DATA</text>
<circle cx="60" cy="577.0" r="5" fill="#e8901a" stroke="#fff" stroke-width="1"/>
<text x="74" y="581.0" font-size="11.5" fill="#333">Pin10 GPIO15 RX</text>
<rect x="288.0" y="567.0" width="78.0" height="20" rx="3" fill="#e8901a"/>
<text x="327.0" y="581.0" text-anchor="middle" font-size="10.5" font-weight="600" fill="#fff">SERVO DATA</text>
<circle cx="60" cy="607.0" r="5" fill="#8e44ad" stroke="#fff" stroke-width="1"/>
<text x="74" y="611.0" font-size="11.5" fill="#333">Pin12 GPIO18</text>
<rect x="302.0" y="597.0" width="64.0" height="20" rx="3" fill="#8e44ad"/>
<text x="334.0" y="611.0" text-anchor="middle" font-size="10.5" font-weight="600" fill="#fff">I2S BCLK</text>
<circle cx="60" cy="637.0" r="5" fill="#9b59b6" stroke="#fff" stroke-width="1"/>
<text x="74" y="641.0" font-size="11.5" fill="#333">Pin35 GPIO19</text>
<rect x="309.0" y="627.0" width="57.0" height="20" rx="3" fill="#9b59b6"/>
<text x="337.5" y="641.0" text-anchor="middle" font-size="10.5" font-weight="600" fill="#fff">I2S LRC</text>
<circle cx="60" cy="667.0" r="5" fill="#7d5ba6" stroke="#fff" stroke-width="1"/>
<text x="74" y="671.0" font-size="11.5" fill="#333">Pin38 GPIO20</text>
<rect x="309.0" y="657.0" width="57.0" height="20" rx="3" fill="#7d5ba6"/>
<text x="337.5" y="671.0" text-anchor="middle" font-size="10.5" font-weight="600" fill="#fff">I2S DIN</text>
<circle cx="60" cy="697.0" r="5" fill="#6c3483" stroke="#fff" stroke-width="1"/>
<text x="74" y="701.0" font-size="11.5" fill="#333">Pin40 GPIO21</text>
<rect x="302.0" y="687.0" width="64.0" height="20" rx="3" fill="#6c3483"/>
<text x="334.0" y="701.0" text-anchor="middle" font-size="10.5" font-weight="600" fill="#fff">I2S DOUT</text>
<circle cx="60" cy="727.0" r="5" fill="#5cb85c" stroke="#fff" stroke-width="1"/>
<text x="74" y="731.0" font-size="11.5" fill="#333">Pin32 GPIO12</text>
<rect x="309.0" y="717.0" width="57.0" height="20" rx="3" fill="#5cb85c"/>
<text x="337.5" y="731.0" text-anchor="middle" font-size="10.5" font-weight="600" fill="#fff">LED DIN</text>
<circle cx="60" cy="757.0" r="5" fill="#5a5a5a" stroke="#fff" stroke-width="1"/>
<text x="74" y="761.0" font-size="11.5" fill="#333">Pin6  GND</text>
<rect x="337.0" y="747.0" width="29.0" height="20" rx="3" fill="#5a5a5a"/>
<text x="351.5" y="761.0" text-anchor="middle" font-size="10.5" font-weight="600" fill="#fff">GND</text>
<line x1="60" y1="427.0" x2="60" y2="322" stroke="#d9534f" stroke-width="3"/>
<circle cx="60" cy="322" r="4.5" fill="#d9534f"/>
<line x1="60" y1="757.0" x2="60" y2="832" stroke="#5a5a5a" stroke-width="3"/>
<circle cx="60" cy="832" r="4.5" fill="#5a5a5a"/>
<rect x="64" y="232" width="214" height="56" rx="3" fill="#ffffff" stroke="#777" stroke-width="1.75"/>
<rect x="64" y="232" width="214" height="26" rx="3" fill="#777"/>
<rect x="64" y="245" width="214" height="13" fill="#777"/>
<text x="76" y="250" font-size="13" font-weight="700" fill="#fff">Camera OV5647</text>
<text x="171.0" y="279" text-anchor="middle" font-size="11" fill="#444">narrow ribbon cable</text>
<rect x="139" y="366" width="34" height="12" fill="#111"/>
<text x="156" y="375" text-anchor="middle" font-size="7.5" fill="#ccc">CSI</text>
<line x1="156" y1="288" x2="156" y2="366" stroke="#999" stroke-width="6" stroke-dasharray="2,3"/>
<text x="182" y="342" font-size="10" fill="#666">CSI ribbon</text>
<text x="182" y="356" font-size="9" fill="#888">22-pin to Pi, 15-pin to camera</text>
<rect x="408" y="372" width="196" height="182" rx="3" fill="#ffffff" stroke="#3f7cac" stroke-width="1.75"/>
<rect x="408" y="372" width="196" height="30" rx="3" fill="#3f7cac"/>
<rect x="408" y="388" width="196" height="14" fill="#3f7cac"/>
<text x="420" y="393" font-size="13" font-weight="700" fill="#fff">MPU-6050 IMU</text>
<text x="594" y="393" text-anchor="end" font-size="9.5" fill="#ffffff" opacity="0.92">I2C 0x68</text>
<circle cx="408" cy="427.0" r="5" fill="#ef9a3d" stroke="#fff" stroke-width="1"/>
<text x="422" y="431.0" font-size="11.5" fill="#333">VCC</text>
<rect x="563.0" y="417.0" width="29.0" height="20" rx="3" fill="#ef9a3d"/>
<text x="577.5" y="431.0" text-anchor="middle" font-size="10.5" font-weight="600" fill="#fff">3V3</text>
<circle cx="408" cy="457.0" r="5" fill="#138496" stroke="#fff" stroke-width="1"/>
<text x="422" y="461.0" font-size="11.5" fill="#333">SDA</text>
<rect x="535.0" y="447.0" width="57.0" height="20" rx="3" fill="#138496"/>
<text x="563.5" y="461.0" text-anchor="middle" font-size="10.5" font-weight="600" fill="#fff">I2C SDA</text>
<circle cx="408" cy="487.0" r="5" fill="#17a2b8" stroke="#fff" stroke-width="1"/>
<text x="422" y="491.0" font-size="11.5" fill="#333">SCL</text>
<rect x="535.0" y="477.0" width="57.0" height="20" rx="3" fill="#17a2b8"/>
<text x="563.5" y="491.0" text-anchor="middle" font-size="10.5" font-weight="600" fill="#fff">I2C SCL</text>
<circle cx="408" cy="517.0" r="5" fill="#5a5a5a" stroke="#fff" stroke-width="1"/>
<text x="422" y="521.0" font-size="11.5" fill="#333">GND</text>
<rect x="563.0" y="507.0" width="29.0" height="20" rx="3" fill="#5a5a5a"/>
<text x="577.5" y="521.0" text-anchor="middle" font-size="10.5" font-weight="600" fill="#fff">GND</text>
<line x1="408" y1="517.0" x2="408" y2="832" stroke="#5a5a5a" stroke-width="3"/>
<circle cx="408" cy="832" r="4.5" fill="#5a5a5a"/>
<rect x="634" y="372" width="232" height="152" rx="3" fill="#ffffff" stroke="#c2772a" stroke-width="1.75"/>
<rect x="634" y="372" width="232" height="30" rx="3" fill="#c2772a"/>
<rect x="634" y="388" width="232" height="14" fill="#c2772a"/>
<text x="646" y="393" font-size="13" font-weight="700" fill="#fff">2× SCS0009</text>
<text x="856" y="393" text-anchor="end" font-size="9.5" fill="#ffffff" opacity="0.92">servo bus</text>
<circle cx="634" cy="427.0" r="5" fill="#d9534f" stroke="#fff" stroke-width="1"/>
<text x="648" y="431.0" font-size="11.5" fill="#333">VCC</text>
<rect x="832.0" y="417.0" width="22.0" height="20" rx="3" fill="#d9534f"/>
<text x="843.0" y="431.0" text-anchor="middle" font-size="10.5" font-weight="600" fill="#fff">5V</text>
<circle cx="634" cy="457.0" r="5" fill="#e8901a" stroke="#fff" stroke-width="1"/>
<text x="648" y="461.0" font-size="11.5" fill="#333">DATA</text>
<rect x="776.0" y="447.0" width="78.0" height="20" rx="3" fill="#e8901a"/>
<text x="815.0" y="461.0" text-anchor="middle" font-size="10.5" font-weight="600" fill="#fff">SERVO DATA</text>
<circle cx="634" cy="487.0" r="5" fill="#5a5a5a" stroke="#fff" stroke-width="1"/>
<text x="648" y="491.0" font-size="11.5" fill="#333">GND</text>
<rect x="825.0" y="477.0" width="29.0" height="20" rx="3" fill="#5a5a5a"/>
<text x="839.5" y="491.0" text-anchor="middle" font-size="10.5" font-weight="600" fill="#fff">GND</text>
<line x1="634" y1="427.0" x2="634" y2="322" stroke="#d9534f" stroke-width="3"/>
<circle cx="634" cy="322" r="4.5" fill="#d9534f"/>
<line x1="634" y1="487.0" x2="634" y2="832" stroke="#5a5a5a" stroke-width="3"/>
<circle cx="634" cy="832" r="4.5" fill="#5a5a5a"/>
<rect x="896" y="372" width="212" height="212" rx="3" fill="#ffffff" stroke="#7d5ba6" stroke-width="1.75"/>
<rect x="896" y="372" width="212" height="30" rx="3" fill="#7d5ba6"/>
<rect x="896" y="388" width="212" height="14" fill="#7d5ba6"/>
<text x="908" y="393" font-size="13" font-weight="700" fill="#fff">MAX98357A</text>
<text x="1098" y="393" text-anchor="end" font-size="9.5" fill="#ffffff" opacity="0.92">amp to 8Ω</text>
<circle cx="896" cy="427.0" r="5" fill="#d9534f" stroke="#fff" stroke-width="1"/>
<text x="910" y="431.0" font-size="11.5" fill="#333">VIN</text>
<rect x="1074.0" y="417.0" width="22.0" height="20" rx="3" fill="#d9534f"/>
<text x="1085.0" y="431.0" text-anchor="middle" font-size="10.5" font-weight="600" fill="#fff">5V</text>
<circle cx="896" cy="457.0" r="5" fill="#8e44ad" stroke="#fff" stroke-width="1"/>
<text x="910" y="461.0" font-size="11.5" fill="#333">BCLK</text>
<rect x="1032.0" y="447.0" width="64.0" height="20" rx="3" fill="#8e44ad"/>
<text x="1064.0" y="461.0" text-anchor="middle" font-size="10.5" font-weight="600" fill="#fff">I2S BCLK</text>
<circle cx="896" cy="487.0" r="5" fill="#9b59b6" stroke="#fff" stroke-width="1"/>
<text x="910" y="491.0" font-size="11.5" fill="#333">LRC</text>
<rect x="1039.0" y="477.0" width="57.0" height="20" rx="3" fill="#9b59b6"/>
<text x="1067.5" y="491.0" text-anchor="middle" font-size="10.5" font-weight="600" fill="#fff">I2S LRC</text>
<circle cx="896" cy="517.0" r="5" fill="#6c3483" stroke="#fff" stroke-width="1"/>
<text x="910" y="521.0" font-size="11.5" fill="#333">DIN</text>
<rect x="1032.0" y="507.0" width="64.0" height="20" rx="3" fill="#6c3483"/>
<text x="1064.0" y="521.0" text-anchor="middle" font-size="10.5" font-weight="600" fill="#fff">I2S DOUT</text>
<circle cx="896" cy="547.0" r="5" fill="#5a5a5a" stroke="#fff" stroke-width="1"/>
<text x="910" y="551.0" font-size="11.5" fill="#333">GND</text>
<rect x="1067.0" y="537.0" width="29.0" height="20" rx="3" fill="#5a5a5a"/>
<text x="1081.5" y="551.0" text-anchor="middle" font-size="10.5" font-weight="600" fill="#fff">GND</text>
<line x1="896" y1="427.0" x2="896" y2="322" stroke="#d9534f" stroke-width="3"/>
<circle cx="896" cy="322" r="4.5" fill="#d9534f"/>
<line x1="896" y1="547.0" x2="896" y2="832" stroke="#5a5a5a" stroke-width="3"/>
<circle cx="896" cy="832" r="4.5" fill="#5a5a5a"/>
<circle cx="986" cy="584" r="3" fill="#555"/><circle cx="1026" cy="584" r="3" fill="#555"/>
<text x="977" y="601" font-size="11" font-weight="700" fill="#555">+</text>
<text x="1017" y="601" font-size="12" font-weight="700" fill="#555">−</text>
<path d="M986 584 V636 H1010" fill="none" stroke="#555" stroke-width="2.4"/>
<path d="M1026 584 V660 H1010" fill="none" stroke="#555" stroke-width="2.4"/>
<rect x="1010" y="632" width="14" height="32" rx="2" fill="#d6d6d6" stroke="#555" stroke-width="1.3"/>
<polygon points="1024,637 1050,622 1050,674 1024,659" fill="#d6d6d6" stroke="#555" stroke-width="1.3"/>
<path d="M1057 638 Q1066 648 1057 658" fill="none" stroke="#777" stroke-width="1.4"/>
<path d="M1064 631 Q1077 648 1064 665" fill="none" stroke="#777" stroke-width="1.4"/>
<text x="1010" y="694" font-size="10" fill="#444">speaker 8Ω</text>
<rect x="1138" y="372" width="206" height="242" rx="3" fill="#ffffff" stroke="#7d5ba6" stroke-width="1.75"/>
<rect x="1138" y="372" width="206" height="30" rx="3" fill="#7d5ba6"/>
<rect x="1138" y="388" width="206" height="14" fill="#7d5ba6"/>
<text x="1150" y="393" font-size="13" font-weight="700" fill="#fff">INMP441 Mic</text>
<text x="1334" y="393" text-anchor="end" font-size="9.5" fill="#ffffff" opacity="0.92">I2S · L ch</text>
<circle cx="1138" cy="427.0" r="5" fill="#ef9a3d" stroke="#fff" stroke-width="1"/>
<text x="1152" y="431.0" font-size="11.5" fill="#333">VDD</text>
<rect x="1303.0" y="417.0" width="29.0" height="20" rx="3" fill="#ef9a3d"/>
<text x="1317.5" y="431.0" text-anchor="middle" font-size="10.5" font-weight="600" fill="#fff">3V3</text>
<circle cx="1138" cy="457.0" r="5" fill="#8e44ad" stroke="#fff" stroke-width="1"/>
<text x="1152" y="461.0" font-size="11.5" fill="#333">SCK</text>
<rect x="1268.0" y="447.0" width="64.0" height="20" rx="3" fill="#8e44ad"/>
<text x="1300.0" y="461.0" text-anchor="middle" font-size="10.5" font-weight="600" fill="#fff">I2S BCLK</text>
<circle cx="1138" cy="487.0" r="5" fill="#9b59b6" stroke="#fff" stroke-width="1"/>
<text x="1152" y="491.0" font-size="11.5" fill="#333">WS</text>
<rect x="1275.0" y="477.0" width="57.0" height="20" rx="3" fill="#9b59b6"/>
<text x="1303.5" y="491.0" text-anchor="middle" font-size="10.5" font-weight="600" fill="#fff">I2S LRC</text>
<circle cx="1138" cy="517.0" r="5" fill="#7d5ba6" stroke="#fff" stroke-width="1"/>
<text x="1152" y="521.0" font-size="11.5" fill="#333">SD</text>
<rect x="1275.0" y="507.0" width="57.0" height="20" rx="3" fill="#7d5ba6"/>
<text x="1303.5" y="521.0" text-anchor="middle" font-size="10.5" font-weight="600" fill="#fff">I2S DIN</text>
<circle cx="1138" cy="547.0" r="5" fill="#5a5a5a" stroke="#fff" stroke-width="1"/>
<text x="1152" y="551.0" font-size="11.5" fill="#333">L/R</text>
<rect x="1303.0" y="537.0" width="29.0" height="20" rx="3" fill="#5a5a5a"/>
<text x="1317.5" y="551.0" text-anchor="middle" font-size="10.5" font-weight="600" fill="#fff">GND</text>
<circle cx="1138" cy="577.0" r="5" fill="#5a5a5a" stroke="#fff" stroke-width="1"/>
<text x="1152" y="581.0" font-size="11.5" fill="#333">GND</text>
<rect x="1303.0" y="567.0" width="29.0" height="20" rx="3" fill="#5a5a5a"/>
<text x="1317.5" y="581.0" text-anchor="middle" font-size="10.5" font-weight="600" fill="#fff">GND</text>
<line x1="1138" y1="577.0" x2="1138" y2="832" stroke="#5a5a5a" stroke-width="3"/>
<circle cx="1138" cy="832" r="4.5" fill="#5a5a5a"/>
<rect x="1374" y="372" width="182" height="152" rx="3" fill="#ffffff" stroke="#4f9e54" stroke-width="1.75"/>
<rect x="1374" y="372" width="182" height="30" rx="3" fill="#4f9e54"/>
<rect x="1374" y="388" width="182" height="14" fill="#4f9e54"/>
<text x="1386" y="393" font-size="13" font-weight="700" fill="#fff">WS2812B Ring</text>
<text x="1546" y="393" text-anchor="end" font-size="9.5" fill="#ffffff" opacity="0.92">7 px</text>
<circle cx="1374" cy="427.0" r="5" fill="#d9534f" stroke="#fff" stroke-width="1"/>
<text x="1388" y="431.0" font-size="11.5" fill="#333">5V</text>
<rect x="1522.0" y="417.0" width="22.0" height="20" rx="3" fill="#d9534f"/>
<text x="1533.0" y="431.0" text-anchor="middle" font-size="10.5" font-weight="600" fill="#fff">5V</text>
<circle cx="1374" cy="457.0" r="5" fill="#5cb85c" stroke="#fff" stroke-width="1"/>
<text x="1388" y="461.0" font-size="11.5" fill="#333">DIN</text>
<rect x="1487.0" y="447.0" width="57.0" height="20" rx="3" fill="#5cb85c"/>
<text x="1515.5" y="461.0" text-anchor="middle" font-size="10.5" font-weight="600" fill="#fff">LED DIN</text>
<circle cx="1374" cy="487.0" r="5" fill="#5a5a5a" stroke="#fff" stroke-width="1"/>
<text x="1388" y="491.0" font-size="11.5" fill="#333">GND</text>
<rect x="1515.0" y="477.0" width="29.0" height="20" rx="3" fill="#5a5a5a"/>
<text x="1529.5" y="491.0" text-anchor="middle" font-size="10.5" font-weight="600" fill="#fff">GND</text>
<line x1="1374" y1="427.0" x2="1374" y2="322" stroke="#d9534f" stroke-width="3"/>
<circle cx="1374" cy="322" r="4.5" fill="#d9534f"/>
<line x1="1374" y1="487.0" x2="1374" y2="832" stroke="#5a5a5a" stroke-width="3"/>
<circle cx="1374" cy="832" r="4.5" fill="#5a5a5a"/>
<rect x="40" y="866" width="470" height="160" rx="3" fill="#fcfaf6" stroke="#d9c08c"/>
<text x="60" y="892" font-size="13" font-weight="700" fill="#8a5a16">Servo bus (half-duplex, one DATA wire)</text>
<text x="60" y="928" font-size="11" fill="#333">GPIO14 TX</text>
<line x1="148" y1="924" x2="200" y2="924" stroke="#e8901a" stroke-width="2.5"/>
<rect x="200" y="916" width="34" height="16" rx="2" fill="#c8a97e" stroke="#6b4423"/><text x="217" y="928" text-anchor="middle" font-size="9" fill="#6b4423">1kΩ</text>
<line x1="234" y1="924" x2="300" y2="924" stroke="#e8901a" stroke-width="2.5"/>
<text x="60" y="964" font-size="11" fill="#333">GPIO15 RX</text>
<line x1="148" y1="960" x2="300" y2="960" stroke="#e8901a" stroke-width="2.5"/>
<text x="240" y="976" font-size="9" fill="#888">direct</text>
<line x1="300" y1="924" x2="300" y2="960" stroke="#e8901a" stroke-width="2.5"/>
<circle cx="300" cy="924" r="3.5" fill="#e8901a"/><circle cx="300" cy="960" r="3.5" fill="#e8901a"/>
<line x1="300" y1="942" x2="340" y2="942" stroke="#e8901a" stroke-width="2.5"/>
<text x="346" y="946" font-size="11" font-weight="700" fill="#e8901a">SERVO DATA</text>
<text x="60" y="1002" font-size="10" fill="#777">Both servos sit on this one wire.</text>
</svg>